<svg width="3980" height="1072" viewBox="0 0 3980 1072" fill="none" xmlns="http://www.w3.org/2000/svg">
<path fill-rule="evenodd" clip-rule="evenodd" d="M140.085 225.516L157.596 313.07L0 704.141L75.8795 739.162L361.887 1071.86L420.256 1025.17L846.349 931.78V855.9L957.25 435.644L898.881 418.134L583.689 102.942L507.809 172.984L140.085 225.516ZM239.312 313.07L420.256 283.885L291.844 418.134L361.887 464.829L583.689 225.516L729.611 371.438L542.831 330.58L525.32 418.134L846.349 494.013L799.654 704.141L752.959 517.361L677.079 540.708L752.959 873.411L542.831 908.432L677.079 785.857L612.873 721.652L361.887 955.127L239.312 785.857L420.256 855.9V756.673L116.738 663.283L186.78 464.829L221.802 645.772L309.355 622.425L239.312 313.07Z" fill="#6610F2"/>
<path d="M1243.99 427.092C1147.39 427.092 1076.47 361.389 1076.47 268.71C1076.47 176.031 1147.39 110.329 1243.99 110.329C1300.12 110.329 1345.37 130.779 1374.96 167.764L1320.13 217.367C1300.99 194.306 1277.49 181.688 1248.34 181.688C1198.3 181.688 1163.49 216.497 1163.49 268.71C1163.49 320.924 1198.3 355.733 1248.34 355.733C1277.49 355.733 1300.99 343.115 1320.13 320.054L1374.96 369.657C1345.37 406.641 1300.12 427.092 1243.99 427.092ZM1450.79 159.062C1420.33 159.062 1400.32 139.917 1400.32 115.115C1400.32 90.3137 1420.33 71.1688 1450.79 71.1688C1481.25 71.1688 1501.26 89.0084 1501.26 113.81C1501.26 139.917 1481.25 159.062 1450.79 159.062ZM1409.46 421V185.168H1492.13V421H1409.46ZM1713.81 98.1458H1796.48V421H1717.72V397.504C1702.06 416.214 1679 424.916 1648.54 424.916C1584.14 424.916 1532.36 377.924 1532.36 302.649C1532.36 227.81 1584.14 181.252 1648.54 181.252C1675.95 181.252 1698.14 189.085 1713.81 205.619V98.1458ZM1665.94 359.214C1693.79 359.214 1715.11 338.764 1715.11 302.649C1715.11 266.97 1693.79 246.955 1665.94 246.955C1637.66 246.955 1616.34 266.97 1616.34 302.649C1616.34 338.764 1637.66 359.214 1665.94 359.214ZM2090.72 303.519C2090.72 309.611 2089.85 317.443 2089.42 323.97H1917.98C1924.94 347.901 1945.39 361.825 1975.85 361.825C1998.91 361.825 2014.14 355.298 2030.24 341.374L2073.75 386.626C2051.13 411.863 2018.06 424.916 1973.24 424.916C1889.26 424.916 1834.87 373.138 1834.87 302.649C1834.87 231.726 1890.13 181.252 1964.54 181.252C2034.16 181.252 2090.72 225.634 2090.72 303.519ZM1964.97 239.993C1939.3 239.993 1921.46 255.657 1916.68 280.458H2013.27C2008.92 255.657 1990.64 239.993 1964.97 239.993ZM2207.59 213.451C2224.56 192.13 2251.97 181.252 2286.78 181.252V255.657C2279.39 254.787 2274.17 254.352 2268.07 254.352C2234.57 254.352 2211.51 271.321 2211.51 312.657V421H2128.84V185.168H2207.59V213.451Z" fill="#0217EB"/>
<path d="M1167.84 899.625V632.9H1063.42V595.045H1315.35V632.9H1210.92V899.625H1167.84ZM1541.27 785.625C1541.27 789.106 1540.84 794.327 1540.4 798.243H1353.3C1358.52 838.709 1391.16 865.686 1436.84 865.686C1463.82 865.686 1486.45 856.548 1503.42 837.839L1526.48 864.816C1505.59 889.182 1473.83 902.235 1435.54 902.235C1361.13 902.235 1311.53 853.068 1311.53 784.32C1311.53 716.007 1360.7 666.839 1427.27 666.839C1493.84 666.839 1541.27 714.701 1541.27 785.625ZM1427.27 702.083C1387.24 702.083 1357.65 729.06 1353.3 768.22H1501.24C1496.89 729.495 1467.74 702.083 1427.27 702.083ZM1699.78 902.235C1628.86 902.235 1577.95 853.068 1577.95 784.32C1577.95 715.572 1628.86 666.839 1699.78 666.839C1741.12 666.839 1775.49 683.808 1793.77 716.007L1762.01 736.457C1747.21 713.831 1724.59 703.389 1699.35 703.389C1654.1 703.389 1620.16 735.152 1620.16 784.32C1620.16 834.358 1654.1 865.686 1699.35 865.686C1724.59 865.686 1747.21 855.243 1762.01 832.617L1793.77 852.632C1775.49 884.831 1741.12 902.235 1699.78 902.235ZM1968.01 666.839C2024.14 666.839 2063.74 699.037 2063.74 766.915V899.625H2021.97V771.701C2021.97 726.45 1999.34 704.259 1959.74 704.259C1915.36 704.259 1886.65 730.801 1886.65 780.839V899.625H1844.87V576.77H1886.65V701.648C1904.05 679.457 1932.77 666.839 1968.01 666.839ZM2264.18 666.839C2320.31 666.839 2359.9 699.037 2359.9 766.915V899.625H2318.13V771.701C2318.13 726.45 2295.51 704.259 2255.91 704.259C2211.53 704.259 2182.81 730.801 2182.81 780.839V899.625H2141.04V669.015H2181.07V703.824C2198.04 680.328 2227.63 666.839 2264.18 666.839ZM2537.25 902.235C2468.07 902.235 2417.16 853.068 2417.16 784.32C2417.16 715.572 2468.07 666.839 2537.25 666.839C2606.44 666.839 2656.91 715.572 2656.91 784.32C2656.91 853.068 2606.44 902.235 2537.25 902.235ZM2537.25 865.686C2581.63 865.686 2614.7 833.487 2614.7 784.32C2614.7 735.152 2581.63 703.389 2537.25 703.389C2492.87 703.389 2459.37 735.152 2459.37 784.32C2459.37 833.487 2492.87 865.686 2537.25 865.686ZM2714.68 899.625V576.77H2756.45V899.625H2714.68ZM2934.97 902.235C2865.79 902.235 2814.88 853.068 2814.88 784.32C2814.88 715.572 2865.79 666.839 2934.97 666.839C3004.16 666.839 3054.63 715.572 3054.63 784.32C3054.63 853.068 3004.16 902.235 2934.97 902.235ZM2934.97 865.686C2979.35 865.686 3012.42 833.487 3012.42 784.32C3012.42 735.152 2979.35 703.389 2934.97 703.389C2890.59 703.389 2857.09 735.152 2857.09 784.32C2857.09 833.487 2890.59 865.686 2934.97 865.686ZM3293.4 669.015H3333V868.297C3333 949.663 3291.66 986.647 3213.34 986.647C3171.14 986.647 3128.5 974.899 3103.26 952.273L3123.28 920.075C3144.6 938.35 3178.1 950.098 3212.04 950.098C3266.43 950.098 3291.23 924.861 3291.23 872.648V854.373C3271.21 878.304 3241.19 890.052 3208.12 890.052C3141.55 890.052 3091.08 844.8 3091.08 778.228C3091.08 711.656 3141.55 666.839 3208.12 666.839C3242.5 666.839 3273.82 679.457 3293.4 704.694V669.015ZM3212.91 853.503C3259.03 853.503 3292.1 822.61 3292.1 778.228C3292.1 733.411 3259.03 703.389 3212.91 703.389C3166.35 703.389 3133.28 733.411 3133.28 778.228C3133.28 822.61 3166.35 853.503 3212.91 853.503ZM3433.7 624.633C3417.6 624.633 3405.42 612.885 3405.42 597.656C3405.42 582.427 3417.6 570.244 3433.7 570.244C3449.8 570.244 3461.98 581.992 3461.98 596.786C3461.98 612.45 3450.23 624.633 3433.7 624.633ZM3412.81 899.625V669.015H3454.58V899.625H3412.81ZM3742.76 785.625C3742.76 789.106 3742.32 794.327 3741.89 798.243H3554.79C3560.01 838.709 3592.64 865.686 3638.33 865.686C3665.31 865.686 3687.93 856.548 3704.9 837.839L3727.96 864.816C3707.08 889.182 3675.32 902.235 3637.03 902.235C3562.62 902.235 3513.02 853.068 3513.02 784.32C3513.02 716.007 3562.19 666.839 3628.76 666.839C3695.33 666.839 3742.76 714.701 3742.76 785.625ZM3628.76 702.083C3588.73 702.083 3559.14 729.06 3554.79 768.22H3702.73C3698.38 729.495 3669.22 702.083 3628.76 702.083ZM3866.9 902.235C3828.61 902.235 3790.75 890.487 3771.61 875.258L3789.01 842.19C3808.59 856.113 3839.92 866.121 3869.94 866.121C3908.67 866.121 3924.77 854.373 3924.77 834.793C3924.77 783.014 3779.01 827.831 3779.01 736.022C3779.01 694.686 3815.99 666.839 3875.17 666.839C3905.19 666.839 3939.13 674.671 3959.14 687.724L3941.3 720.793C3920.42 707.305 3897.36 702.518 3874.73 702.518C3838.18 702.518 3820.34 716.007 3820.34 734.282C3820.34 788.671 3966.54 744.289 3966.54 833.923C3966.54 875.693 3928.25 902.235 3866.9 902.235Z" fill="#6610F2"/>
</svg>
